<svg width="225" height="58" viewBox="0 0 225 58" fill="none" xmlns="http://www.w3.org/2000/svg">
<rect width="225" height="58" rx="29" fill="#728BAD"/>
<path d="M91.946 29.0909C91.946 31.4702 91.495 33.4943 90.593 35.1634C89.6982 36.8324 88.4766 38.1072 86.9283 38.9879C85.3871 39.8615 83.6541 40.2983 81.7294 40.2983C79.7905 40.2983 78.0504 39.858 76.5092 38.9773C74.968 38.0966 73.75 36.8217 72.8551 35.1527C71.9602 33.4837 71.5128 31.4631 71.5128 29.0909C71.5128 26.7116 71.9602 24.6875 72.8551 23.0185C73.75 21.3494 74.968 20.0781 76.5092 19.2045C78.0504 18.3239 79.7905 17.8835 81.7294 17.8835C83.6541 17.8835 85.3871 18.3239 86.9283 19.2045C88.4766 20.0781 89.6982 21.3494 90.593 23.0185C91.495 24.6875 91.946 26.7116 91.946 29.0909ZM87.2692 29.0909C87.2692 27.5497 87.0384 26.25 86.5767 25.1918C86.1222 24.1335 85.4794 23.331 84.6484 22.7841C83.8175 22.2372 82.8445 21.9638 81.7294 21.9638C80.6143 21.9638 79.6413 22.2372 78.8104 22.7841C77.9794 23.331 77.3331 24.1335 76.8714 25.1918C76.4169 26.25 76.1896 27.5497 76.1896 29.0909C76.1896 30.6321 76.4169 31.9318 76.8714 32.9901C77.3331 34.0483 77.9794 34.8509 78.8104 35.3977C79.6413 35.9446 80.6143 36.218 81.7294 36.218C82.8445 36.218 83.8175 35.9446 84.6484 35.3977C85.4794 34.8509 86.1222 34.0483 86.5767 32.9901C87.0384 31.9318 87.2692 30.6321 87.2692 29.0909ZM95.2779 40V23.6364H99.6777V26.4915H99.8482C100.146 25.4759 100.647 24.7088 101.35 24.1903C102.053 23.6648 102.863 23.402 103.779 23.402C104.007 23.402 104.252 23.4162 104.514 23.4446C104.777 23.473 105.008 23.5121 105.207 23.5618V27.5888C104.994 27.5249 104.699 27.468 104.323 27.4183C103.946 27.3686 103.602 27.3438 103.289 27.3438C102.622 27.3438 102.025 27.4893 101.499 27.7805C100.981 28.0646 100.569 28.4624 100.264 28.9737C99.9654 29.4851 99.8162 30.0746 99.8162 30.7422V40H95.2779ZM112.821 40.2663C111.578 40.2663 110.453 39.9467 109.444 39.3075C108.443 38.6612 107.647 37.7131 107.058 36.4631C106.475 35.206 106.184 33.6648 106.184 31.8395C106.184 29.9645 106.486 28.4055 107.09 27.1626C107.694 25.9126 108.496 24.9787 109.498 24.3608C110.506 23.7358 111.61 23.4233 112.811 23.4233C113.727 23.4233 114.49 23.5795 115.101 23.892C115.719 24.1974 116.216 24.581 116.593 25.0426C116.976 25.4972 117.267 25.9446 117.466 26.3849H117.605V18.1818H122.132V40H117.658V37.3793H117.466C117.253 37.8338 116.951 38.2848 116.561 38.7322C116.177 39.1726 115.676 39.5384 115.059 39.8295C114.448 40.1207 113.702 40.2663 112.821 40.2663ZM114.26 36.6548C114.991 36.6548 115.609 36.456 116.113 36.0582C116.625 35.6534 117.015 35.0888 117.285 34.3643C117.562 33.6399 117.701 32.7912 117.701 31.8182C117.701 30.8452 117.566 30 117.296 29.2827C117.026 28.5653 116.635 28.0114 116.124 27.6207C115.613 27.2301 114.991 27.0348 114.26 27.0348C113.514 27.0348 112.885 27.2372 112.374 27.642C111.863 28.0469 111.475 28.608 111.213 29.3253C110.95 30.0426 110.819 30.8736 110.819 31.8182C110.819 32.7699 110.95 33.6115 111.213 34.343C111.483 35.0675 111.87 35.6357 112.374 36.0476C112.885 36.4524 113.514 36.6548 114.26 36.6548ZM133.321 40.3196C131.638 40.3196 130.189 39.9787 128.975 39.2969C127.767 38.608 126.837 37.6349 126.183 36.3778C125.53 35.1136 125.203 33.6186 125.203 31.8928C125.203 30.2095 125.53 28.7322 126.183 27.4609C126.837 26.1896 127.757 25.1989 128.943 24.4886C130.136 23.7784 131.535 23.4233 133.14 23.4233C134.22 23.4233 135.225 23.5973 136.155 23.9453C137.093 24.2862 137.909 24.8011 138.605 25.4901C139.308 26.179 139.855 27.0455 140.246 28.0895C140.637 29.1264 140.832 30.3409 140.832 31.733V32.9794H127.014V30.1669H136.56C136.56 29.5135 136.418 28.9347 136.134 28.4304C135.85 27.9261 135.455 27.532 134.951 27.2479C134.454 26.9567 133.875 26.8111 133.215 26.8111C132.526 26.8111 131.915 26.9709 131.382 27.2905C130.857 27.603 130.445 28.0256 130.146 28.5582C129.848 29.0838 129.695 29.6697 129.688 30.3161V32.9901C129.688 33.7997 129.838 34.4993 130.136 35.0888C130.441 35.6783 130.871 36.1328 131.425 36.4524C131.979 36.772 132.636 36.9318 133.396 36.9318C133.9 36.9318 134.362 36.8608 134.781 36.7188C135.2 36.5767 135.558 36.3636 135.857 36.0795C136.155 35.7955 136.382 35.4474 136.539 35.0355L140.736 35.3125C140.523 36.321 140.086 37.2017 139.426 37.9545C138.772 38.7003 137.927 39.2827 136.89 39.7017C135.86 40.1136 134.671 40.3196 133.321 40.3196ZM143.794 40V23.6364H148.193V26.4915H148.364C148.662 25.4759 149.163 24.7088 149.866 24.1903C150.569 23.6648 151.379 23.402 152.295 23.402C152.522 23.402 152.767 23.4162 153.03 23.4446C153.293 23.473 153.524 23.5121 153.722 23.5618V27.5888C153.509 27.5249 153.215 27.468 152.838 27.4183C152.462 27.3686 152.117 27.3438 151.805 27.3438C151.137 27.3438 150.541 27.4893 150.015 27.7805C149.497 28.0646 149.085 28.4624 148.779 28.9737C148.481 29.4851 148.332 30.0746 148.332 30.7422V40H143.794Z" fill="#F5F5F5"/>
</svg>
